<!DOCTYPE svg PUBLIC "-//W3C//DTD SVG 20010904//EN" "http://www.w3.org/TR/2001/REC-SVG-20010904/DTD/svg10.dtd">
<svg version="1.0" xmlns="http://www.w3.org/2000/svg" width="691px" height="449px" viewBox="0 0 6910 4490" preserveAspectRatio="xMidYMid meet">
<g id="layer101" fill="#212121" stroke="none">
<path d="M1145 4436 c-22 -7 -50 -18 -62 -24 l-22 -12 21 -60 c11 -33 23 -60 28 -60 4 0 27 7 50 15 23 8 71 15 106 15 59 0 67 -3 103 -35 22 -20 54 -67 74 -108 42 -85 107 -255 107 -279 0 -10 -27 -86 -61 -170 -34 -84 -92 -232 -129 -328 -38 -96 -100 -256 -139 -355 -39 -99 -71 -181 -71 -183 0 -2 35 -2 77 0 l77 3 88 230 c235 612 242 629 250 609 4 -10 77 -203 162 -429 l154 -410 77 -3 c61 -2 76 0 72 10 -18 39 -310 783 -448 1141 -111 287 -164 373 -261 421 -43 22 -65 26 -132 25 -45 0 -99 -6 -121 -13z"/>
<path d="M3400 3923 c-45 -9 -122 -44 -178 -80 -162 -108 -249 -348 -209 -578 50 -283 264 -458 542 -442 158 8 280 69 363 182 82 110 112 210 113 365 0 178 -49 307 -156 415 -102 103 -212 146 -365 144 -47 -1 -96 -4 -110 -6z m230 -139 c184 -55 290 -253 259 -484 -25 -184 -134 -310 -295 -340 -84 -16 -159 -6 -233 31 -106 53 -179 163 -202 306 -22 133 20 295 101 386 87 100 238 140 370 101z"/>
<path d="M5307 3916 c-180 -52 -304 -184 -353 -376 -26 -102 -22 -255 10 -356 79 -247 271 -377 535 -361 126 7 281 61 281 97 0 18 -29 120 -34 120 -2 0 -23 -11 -47 -24 -96 -53 -262 -72 -366 -41 -104 31 -185 118 -224 239 -56 174 -2 410 114 499 73 55 117 71 218 75 105 5 173 -9 261 -54 54 -27 51 -29 68 51 10 46 10 50 -12 67 -13 9 -54 29 -93 44 -59 23 -89 27 -190 30 -81 2 -136 -1 -168 -10z"/>
<path d="M2450 3260 l0 -650 -255 0 -255 0 0 -70 0 -70 580 0 581 0 -3 66 -3 65 -247 -1 -248 -1 -2 653 -3 653 -72 3 -73 3 0 -651z"/>
<path d="M4257 3903 c-4 -3 -7 -239 -7 -524 0 -589 -10 -531 92 -544 l57 -7 3 102 3 101 36 -53 c67 -101 166 -154 280 -152 57 1 154 28 165 45 3 6 -2 39 -12 75 -14 52 -20 64 -33 58 -59 -25 -93 -33 -141 -33 -105 -1 -188 59 -270 195 l-35 58 -3 343 -3 343 -63 0 c-34 0 -66 -3 -69 -7z"/>
<path d="M5975 3898 c-3 -7 -4 -357 -3 -777 l3 -765 65 -12 c36 -7 68 -13 73 -13 4 -1 7 145 7 324 0 179 3 325 6 325 3 0 25 -16 47 -36 59 -50 170 -101 250 -114 161 -25 298 42 361 179 20 44 21 61 24 474 l3 428 -73 -3 -73 -3 -5 -400 c-5 -390 -6 -401 -27 -442 -29 -54 -68 -81 -137 -95 -102 -20 -239 23 -332 105 l-44 39 0 399 0 399 -70 0 c-47 0 -72 -4 -75 -12z"/>
<path d="M117 3893 c-4 -3 -7 -325 -7 -716 l0 -709 273 4 c266 4 274 4 351 31 90 32 146 67 200 127 78 87 116 222 98 352 -16 118 -46 184 -116 254 -110 109 -238 151 -493 161 l-163 6 0 249 0 248 -68 0 c-38 0 -72 -3 -75 -7z m513 -665 c96 -24 157 -61 197 -122 40 -59 53 -103 53 -182 0 -138 -65 -238 -185 -283 -66 -25 -244 -44 -360 -39 l-70 3 -3 328 -2 328 147 -7 c90 -4 177 -14 223 -26z"/>
</g>
<g id="layer102" fill="#5e5e5e" stroke="none">
<path d="M1136 4434 c-26 -9 -46 -17 -44 -19 2 -2 26 2 53 10 26 8 82 15 124 15 95 0 148 -23 210 -88 32 -33 38 -38 22 -14 -27 39 -75 76 -124 97 -47 19 -175 19 -241 -1z"/>
<path d="M1068 4404 c-4 -3 3 -32 14 -65 11 -33 22 -58 24 -56 2 2 -5 29 -15 60 -11 30 -17 58 -14 61 4 3 4 6 1 6 -2 0 -7 -3 -10 -6z"/>
<path d="M1238 4313 c18 -2 45 -2 60 0 15 2 0 4 -33 4 -33 0 -45 -2 -27 -4z"/>
<path d="M1350 4297 c0 -2 15 -16 33 -33 l32 -29 -29 33 c-28 30 -36 37 -36 29z"/>
<path d="M1571 4205 c0 -5 6 -21 14 -35 8 -14 14 -20 14 -15 0 6 -6 21 -14 35 -8 14 -14 21 -14 15z"/>
<path d="M1626 4070 c3 -14 11 -32 16 -40 6 -10 7 -7 2 10 -3 14 -11 32 -16 40 -6 10 -7 7 -2 -10z"/>
<path d="M3468 3923 c29 -2 74 -2 100 0 26 2 2 3 -53 3 -55 0 -76 -1 -47 -3z"/>
<path d="M5332 3922 c-13 -4 34 -7 105 -7 70 0 146 -3 168 -7 34 -7 37 -6 15 4 -29 12 -253 21 -288 10z"/>
<path d="M3345 3905 c-39 -18 -31 -18 25 -1 25 8 36 15 25 15 -11 0 -33 -6 -50 -14z"/>
<path d="M3670 3901 c30 -10 71 -25 90 -35 27 -13 31 -14 16 -1 -24 18 -120 55 -144 54 -9 0 8 -8 38 -18z"/>
<path d="M1551 3893 c0 -12 -4 -30 -7 -40 -5 -17 -5 -17 6 0 6 10 9 28 7 40 -4 22 -4 22 -6 0z"/>
<path d="M2517 3903 l73 -4 3 -649 2 -650 0 652 0 653 -75 1 -75 1 72 -4z"/>
<path d="M4257 3903 c-4 -3 -7 -239 -7 -524 0 -502 1 -519 19 -529 11 -5 30 -10 43 -9 25 1 19 4 -24 13 l-28 6 0 520 0 519 68 4 67 3 -66 2 c-36 1 -69 -1 -72 -5z"/>
<path d="M5975 3898 c-3 -7 -4 -357 -3 -778 l3 -764 45 -8 c25 -4 50 -6 55 -4 6 2 -14 7 -42 11 l-53 8 0 768 0 769 65 0 65 0 0 -394 0 -393 45 -42 c24 -22 48 -41 51 -41 4 0 -14 18 -40 41 l-46 41 0 399 0 399 -70 0 c-47 0 -72 -4 -75 -12z"/>
<path d="M6665 3898 c-8 -21 -11 -799 -3 -780 4 9 7 189 7 399 l1 382 73 4 72 3 -73 2 c-51 1 -74 -2 -77 -10z"/>
<path d="M115 3888 c-3 -7 -4 -330 -3 -718 l3 -705 3 712 2 712 73 4 72 3 -73 2 c-50 1 -74 -2 -77 -10z"/>
<path d="M2452 3253 l-2 -643 -255 0 -255 0 2 -72 2 -73 3 68 4 67 250 0 c190 0 251 3 254 13 3 6 4 298 3 647 l-3 635 -3 -642z"/>
<path d="M3805 3843 c6 -5 33 -30 60 -54 37 -32 42 -35 20 -10 -16 18 -43 42 -60 54 -16 11 -25 16 -20 10z"/>
<path d="M3145 3778 c-39 -45 -95 -136 -95 -153 0 -5 14 15 31 45 16 30 48 76 70 102 22 27 38 48 35 48 -2 0 -21 -19 -41 -42z"/>
<path d="M5428 3793 c23 -2 59 -2 80 0 20 2 1 4 -43 4 -44 0 -61 -2 -37 -4z"/>
<path d="M5755 3760 l-7 -40 -40 21 c-22 11 -42 19 -44 17 -2 -3 16 -14 41 -26 24 -12 46 -18 49 -14 7 12 19 82 13 82 -3 0 -8 -18 -12 -40z"/>
<path d="M1746 3760 c4 -14 15 -43 25 -65 11 -22 16 -29 13 -15 -4 14 -15 43 -25 65 -11 22 -16 29 -13 15z"/>
<path d="M3329 3752 c-52 -34 -101 -87 -129 -142 -31 -61 -23 -61 11 0 38 70 71 105 134 141 28 16 45 29 39 29 -5 0 -30 -13 -55 -28z"/>
<path d="M3710 3753 c59 -43 100 -87 126 -138 16 -29 30 -52 32 -50 2 2 -6 22 -18 45 -27 53 -88 120 -132 143 -32 17 -32 17 -8 0z"/>
<path d="M5210 3709 l-35 -30 38 26 c33 24 43 35 34 35 -1 0 -18 -14 -37 -31z"/>
<path d="M1603 3658 c-13 -34 -21 -63 -19 -65 2 -2 14 24 26 57 17 44 26 58 32 48 8 -10 9 -10 6 1 -9 32 -24 18 -45 -41z"/>
<path d="M5000 3669 c-12 -23 -20 -43 -18 -45 3 -2 14 17 26 41 27 56 20 60 -8 4z"/>
<path d="M3967 3645 c9 -19 18 -33 21 -31 4 5 -26 66 -33 66 -3 0 3 -16 12 -35z"/>
<path d="M5146 3633 c-27 -41 -56 -116 -55 -142 0 -9 8 10 19 42 10 32 30 76 44 98 15 21 24 39 21 39 -2 0 -16 -17 -29 -37z"/>
<path d="M3031 3578 c-6 -17 -13 -57 -16 -87 -5 -55 -5 -54 9 14 8 39 17 78 21 88 4 9 5 17 2 17 -3 0 -10 -14 -16 -32z"/>
<path d="M1411 3524 c-12 -31 -20 -59 -18 -61 2 -2 14 22 26 53 12 31 20 59 18 61 -2 2 -14 -22 -26 -53z"/>
<path d="M4002 3560 c0 -8 4 -26 8 -40 6 -20 8 -21 8 -5 0 11 -3 29 -8 40 -5 12 -8 14 -8 5z"/>
<path d="M1716 3500 c3 -14 11 -32 16 -40 6 -10 7 -7 2 10 -3 14 -11 32 -16 40 -6 10 -7 7 -2 -10z"/>
<path d="M4943 3460 c0 -25 2 -35 4 -22 2 12 2 32 0 45 -2 12 -4 2 -4 -23z"/>
<path d="M4023 3440 c0 -30 2 -43 4 -27 2 15 2 39 0 55 -2 15 -4 2 -4 -28z"/>
<path d="M3893 3435 c0 -22 2 -30 4 -17 2 12 2 30 0 40 -3 9 -5 -1 -4 -23z"/>
<path d="M5083 3435 c0 -22 2 -30 4 -17 2 12 2 30 0 40 -3 9 -5 -1 -4 -23z"/>
<path d="M1746 3420 c3 -14 11 -32 16 -40 6 -10 7 -7 2 10 -3 14 -11 32 -16 40 -6 10 -7 7 -2 -10z"/>
<path d="M3001 3384 c0 -27 4 -69 9 -94 6 -32 7 -18 3 45 -6 98 -13 128 -12 49z"/>
<path d="M318 3393 c34 -2 88 -2 120 0 31 2 3 3 -63 3 -66 0 -92 -1 -57 -3z"/>
<path d="M538 3383 c12 -2 32 -2 45 0 12 2 2 4 -23 4 -25 0 -35 -2 -22 -4z"/>
<path d="M3892 3320 c0 -19 2 -27 5 -17 2 9 2 25 0 35 -3 9 -5 1 -5 -18z"/>
<path d="M4022 3310 c-2 -40 -14 -98 -36 -175 -4 -11 0 -6 8 10 22 44 38 129 33 172 -4 37 -4 37 -5 -7z"/>
<path d="M5082 3310 c0 -19 2 -27 5 -17 2 9 2 25 0 35 -3 9 -5 1 -5 -18z"/>
<path d="M4941 3294 c1 -21 5 -50 9 -64 5 -16 6 -2 3 35 -7 69 -13 86 -12 29z"/>
<path d="M1461 3289 c-6 -18 -9 -34 -7 -36 2 -2 9 10 15 28 6 18 9 34 7 36 -2 2 -9 -10 -15 -28z"/>
<path d="M1926 3300 c4 -14 15 -43 25 -65 11 -22 16 -29 13 -15 -4 14 -15 43 -25 65 -11 22 -16 29 -13 15z"/>
<path d="M907 3240 c23 -25 53 -65 67 -90 14 -25 26 -40 26 -34 0 19 -57 99 -96 134 l-39 35 42 -45z"/>
<path d="M252 2933 c-1 -183 1 -333 6 -333 4 0 6 98 4 217 -4 410 -8 448 -10 116z"/>
<path d="M413 3253 c26 -2 67 -2 90 0 23 2 2 3 -48 3 -49 0 -68 -1 -42 -3z"/>
<path d="M627 3230 c40 -10 82 -24 94 -30 14 -8 19 -8 15 -1 -8 13 -129 51 -160 50 -11 0 11 -9 51 -19z"/>
<path d="M1431 3209 c-6 -18 -9 -34 -7 -36 2 -2 9 10 15 28 6 18 9 34 7 36 -2 2 -9 -10 -15 -28z"/>
<path d="M3020 3228 c0 -19 40 -131 45 -126 2 2 -7 35 -21 73 -13 39 -24 62 -24 53z"/>
<path d="M1276 3180 c-22 -56 -19 -65 5 -11 11 24 18 46 15 48 -2 2 -11 -14 -20 -37z"/>
<path d="M5101 3210 c0 -14 28 -72 29 -59 0 4 -7 22 -15 40 -8 19 -14 27 -14 19z"/>
<path d="M3180 3187 c0 -17 42 -88 73 -123 32 -38 112 -94 131 -94 6 0 -11 13 -39 29 -63 36 -96 71 -134 141 -17 30 -31 51 -31 47z"/>
<path d="M813 3127 c21 -27 37 -53 37 -59 0 -6 3 -9 6 -5 8 8 -29 68 -57 93 -12 10 -6 -3 14 -29z"/>
<path d="M4980 3136 c0 -11 40 -86 45 -86 3 0 -4 19 -16 43 -23 45 -29 54 -29 43z"/>
<path d="M5147 3112 c10 -18 33 -47 52 -65 l35 -32 -34 40 c-19 22 -43 51 -53 65 -17 24 -17 24 0 -8z"/>
<path d="M1862 3110 c30 -87 52 -140 55 -137 4 5 -45 138 -54 146 -3 4 -4 -1 -1 -9z"/>
<path d="M3785 3063 c-21 -27 -28 -39 -16 -28 23 19 66 75 59 75 -2 0 -21 -21 -43 -47z"/>
<path d="M4510 3045 c19 -19 36 -35 39 -35 3 0 -10 16 -29 35 -19 19 -36 35 -39 35 -3 0 10 -16 29 -35z"/>
<path d="M1017 3035 c3 -22 7 -42 9 -44 8 -9 2 45 -6 64 -7 14 -8 8 -3 -20z"/>
<path d="M3117 3015 c12 -16 36 -43 54 -60 25 -22 22 -17 -10 20 -59 67 -68 75 -44 40z"/>
<path d="M4392 2933 l2 -108 3 103 c3 73 7 101 15 96 7 -4 8 -3 4 4 -19 31 -26 4 -24 -95z"/>
<path d="M5047 3015 c12 -16 36 -43 54 -60 25 -22 22 -17 -10 20 -59 67 -68 75 -44 40z"/>
<path d="M6767 2995 c-9 -19 -15 -35 -12 -35 7 0 37 61 33 66 -3 2 -12 -12 -21 -31z"/>
<path d="M5751 3010 c0 -8 4 -24 9 -35 5 -13 9 -14 9 -5 0 8 -4 24 -9 35 -5 13 -9 14 -9 5z"/>
<path d="M4426 3000 c16 -32 67 -91 97 -112 24 -16 20 -10 -14 23 -25 24 -55 58 -68 74 -12 17 -19 23 -15 15z"/>
<path d="M4820 2994 c-17 -10 -18 -13 -5 -8 11 3 26 7 33 7 6 0 12 4 12 9 0 12 -11 9 -40 -8z"/>
<path d="M6110 2666 c0 -250 -3 -325 -12 -329 -8 -3 -6 -6 4 -6 16 -1 18 24 20 329 2 182 0 330 -4 330 -5 0 -8 -146 -8 -324z"/>
<path d="M3860 2949 c-19 -17 -57 -44 -85 -60 -27 -16 -45 -29 -39 -29 15 0 125 73 149 99 26 30 16 25 -25 -10z"/>
<path d="M883 2920 c0 -30 2 -43 4 -27 2 15 2 39 0 55 -2 15 -4 2 -4 -28z"/>
<path d="M4673 2963 c15 -2 37 -2 50 0 12 2 0 4 -28 4 -27 0 -38 -2 -22 -4z"/>
<path d="M5418 2953 c23 -2 59 -2 80 0 20 2 1 4 -43 4 -44 0 -61 -2 -37 -4z"/>
<path d="M3498 2943 c12 -2 32 -2 45 0 12 2 2 4 -23 4 -25 0 -35 -2 -22 -4z"/>
<path d="M6709 2913 l-34 -38 38 34 c34 33 42 41 34 41 -2 0 -19 -17 -38 -37z"/>
<path d="M3214 2922 c9 -16 85 -58 116 -66 14 -3 5 3 -18 14 -24 11 -58 30 -75 42 -17 12 -27 17 -23 10z"/>
<path d="M5148 2917 c17 -20 129 -77 151 -77 9 0 -9 11 -40 24 -31 12 -71 33 -90 46 -20 15 -29 18 -21 7z"/>
<path d="M2080 2907 c0 -5 5 -17 10 -28 10 -18 7 -19 -59 -19 -38 0 -72 5 -74 10 -3 6 -4 5 -3 -2 3 -14 156 -25 156 -11 -1 11 -29 60 -30 50z"/>
<path d="M5720 2885 c-25 -13 -40 -24 -35 -24 6 0 30 11 55 24 25 13 41 24 35 24 -5 0 -30 -11 -55 -24z"/>
<path d="M6230 2905 c0 -7 81 -47 86 -43 2 3 -17 14 -41 26 -25 12 -45 20 -45 17z"/>
<path d="M1305 2880 c-6 -20 -12 -21 -81 -18 -41 2 -74 0 -74 -4 0 -5 34 -8 75 -8 65 0 76 3 85 21 7 11 9 23 7 26 -3 2 -8 -5 -12 -17z"/>
<path d="M4820 2854 c-36 -13 -58 -23 -49 -24 22 0 108 30 115 41 3 5 4 8 2 8 -2 -1 -32 -12 -68 -25z"/>
<path d="M3375 2840 c11 -5 27 -9 35 -9 9 0 8 4 -5 9 -11 5 -27 9 -35 9 -9 0 -8 -4 5 -9z"/>
<path d="M5590 2840 c-20 -6 -21 -8 -5 -8 11 0 29 3 40 8 25 11 -1 11 -35 0z"/>
<path d="M3458 2823 c12 -2 30 -2 40 0 9 3 -1 5 -23 4 -22 0 -30 -2 -17 -4z"/>
<path d="M3558 2823 c12 -2 30 -2 40 0 9 3 -1 5 -23 4 -22 0 -30 -2 -17 -4z"/>
<path d="M5388 2823 c12 -2 30 -2 40 0 9 3 -1 5 -23 4 -22 0 -30 -2 -17 -4z"/>
<path d="M5498 2823 c12 -2 30 -2 40 0 9 3 -1 5 -23 4 -22 0 -30 -2 -17 -4z"/>
<path d="M910 2615 c-24 -25 -42 -45 -39 -45 3 0 25 20 49 45 24 25 42 45 39 45 -3 0 -25 -20 -49 -45z"/>
<path d="M498 2603 c17 -2 47 -2 65 0 17 2 3 4 -33 4 -36 0 -50 -2 -32 -4z"/>
<path d="M800 2540 c-30 -16 -52 -29 -47 -30 12 0 97 41 103 51 7 12 8 12 -56 -21z"/>
<path d="M563 2473 c9 -2 25 -2 35 0 9 3 1 5 -18 5 -19 0 -27 -2 -17 -5z"/>
</g>
<g id="layer103" fill="#f04b29" stroke="none">
<path d="M3350 2120 c-379 -41 -684 -331 -751 -714 -15 -86 -6 -269 16 -351 23 -84 87 -216 139 -288 24 -34 189 -206 365 -382 l321 -320 0 149 0 150 -248 250 c-274 277 -317 334 -359 478 -95 329 93 684 417 790 89 29 253 36 341 14 466 -117 647 -666 343 -1042 l-33 -41 75 -74 74 -73 30 34 c124 142 189 291 210 475 59 537 -404 1002 -940 945z"/>
<path d="M3674 586 c-88 -88 -1 -227 113 -181 46 18 73 59 73 110 0 55 -52 105 -110 105 -34 0 -48 -6 -76 -34z"/>
</g>
<g id="layer104" fill="#a99894" stroke="none">
<path d="M1248 4313 c12 -2 30 -2 40 0 9 3 -1 5 -23 4 -22 0 -30 -2 -17 -4z"/>
<path d="M2483 3903 c20 -2 54 -2 75 0 20 2 3 4 -38 4 -41 0 -58 -2 -37 -4z"/>
<path d="M4255 3898 c-3 -7 -4 -245 -3 -528 l3 -515 3 522 2 522 68 4 67 3 -68 2 c-46 1 -69 -2 -72 -10z"/>
<path d="M6665 3897 c-3 -6 -4 -170 -2 -362 l2 -350 3 357 2 357 73 4 72 3 -73 2 c-51 1 -74 -2 -77 -11z"/>
<path d="M5975 3131 c0 -680 2 -775 15 -778 11 -3 12 -2 3 4 -10 7 -13 179 -16 779 l-2 769 0 -774z"/>
<path d="M115 3180 c0 -393 1 -554 2 -357 2 196 2 518 0 715 -1 196 -2 35 -2 -358z"/>
<path d="M3154 3788 l-29 -33 33 29 c30 28 37 36 29 36 -2 0 -16 -15 -33 -32z"/>
<path d="M5084 3788 l-29 -33 33 29 c30 28 37 36 29 36 -2 0 -16 -15 -33 -32z"/>
<path d="M5438 3793 c12 -2 32 -2 45 0 12 2 2 4 -23 4 -25 0 -35 -2 -22 -4z"/>
<path d="M3003 3375 c0 -33 2 -45 4 -27 2 18 2 45 0 60 -2 15 -4 0 -4 -33z"/>
<path d="M4932 3380 c0 -19 2 -27 5 -17 2 9 2 25 0 35 -3 9 -5 1 -5 -18z"/>
<path d="M322 3393 c32 -2 84 -2 115 0 32 2 6 3 -57 3 -63 0 -89 -1 -58 -3z"/>
<path d="M393 3253 c15 -2 39 -2 55 0 15 2 2 4 -28 4 -30 0 -43 -2 -27 -4z"/>
<path d="M1033 2915 c0 -27 2 -38 4 -22 2 15 2 37 0 50 -2 12 -4 0 -4 -28z"/>
<path d="M4693 2823 c9 -2 25 -2 35 0 9 3 1 5 -18 5 -19 0 -27 -2 -17 -5z"/>
<path d="M6473 2823 c9 -2 25 -2 35 0 9 3 1 5 -18 5 -19 0 -27 -2 -17 -5z"/>
<path d="M488 2603 c12 -2 30 -2 40 0 9 3 -1 5 -23 4 -22 0 -30 -2 -17 -4z"/>
<path d="M1943 2540 c0 -41 2 -58 4 -37 2 20 2 54 0 75 -2 20 -4 3 -4 -38z"/>
</g>


</svg>